# xmcd
#
# Track frame offsets:
# 150
# 12975
# 26737
# 36062
# 47775
# 60200
# 72487
# 86537
# 99200
# 116175
# 128650
# 142375
# 155025
# 171675
# 182437
# 201175
# 214500
# 227350
# 237987
# 248325
# 266975
# 278487
# 289212
# 307350
#
# Disc length: 4291 seconds
#
#
# Revision: 1
# Processed by: cddbd v1.5.2PL0 Copyright (c) Steve Scherf et al.
# Submitted via: FreeRIP 2.30 
#
DISCID=6110c118
DTITLE=Johnny Cash - The Best of Country Music
DYEAR=2003
DGENRE=Country
TTITLE0=I Walk The Line
TTITLE1=Don't Take Your Guns To Town
TTITLE2=I Got Stripes
TTITLE3=Ring Of Fire
TTITLE4=The Matador
TTITLE5=Understand Your Man
TTITLE6=Orange Blossom Special
TTITLE7=The One On The Right Is On The Left
TTITLE8=(Ghost) Riders In The Sky
TTITLE9=Jackson
TTITLE10=It Ain't Me Babe
TTITLE11=Folsom Prison Blues
TTITLE12=A Boy Named Sue
TTITLE13=Blistered
TTITLE14=Sunday Morning Coming Down
TTITLE15=If I Were A Carpenter
TTITLE16=Man In Black
TTITLE17=Daddy Sang Bass
TTITLE18=Kate
TTITLE19=The Ballad Of Ira Hayes
TTITLE20=A Thing Called Love
TTITLE21=In The Jailhouse Now
TTITLE22=One Piece At A Time
TTITLE23=There Ain't No Good Chain Gang
EXTD=
EXTT0=
EXTT1=
EXTT2=
EXTT3=
EXTT4=
EXTT5=
EXTT6=
EXTT7=
EXTT8=
EXTT9=
EXTT10=
EXTT11=
EXTT12=
EXTT13=
EXTT14=
EXTT15=
EXTT16=
EXTT17=
EXTT18=
EXTT19=
EXTT20=
EXTT21=
EXTT22=
EXTT23=
PLAYORDER=
